<svg xmlns="http://www.w3.org/2000/svg" xmlns:xlink="http://www.w3.org/1999/xlink" fill="#FFFFFF" version="1.1" x="0px" y="0px" viewBox="0 0 100 100" style="enable-background:new 0 0 100 100;" xml:space="preserve" class="__web-inspector-hide-shortcut__"><polygon points="63.3,52.3 72.4,52.3 67.9,42.5 "/><path d="M88.3,23.8l-34.6-20c-2.2-1.3-5-1.3-7.2,0l-34.6,20c-2.2,1.3-3.6,3.7-3.6,6.2v40c0,2.6,1.4,5,3.6,6.2l34.6,20  c1.1,0.6,2.3,1,3.6,1s2.5-0.3,3.6-1l34.6-20c2.2-1.3,3.6-3.7,3.6-6.2v-40C91.9,27.5,90.5,25.1,88.3,23.8z M32.1,31  c0.1,0,0.2,0,0.2,0h16.6v-5.4c0-0.7,0.5-1.2,1.2-1.2c0.7,0,1.2,0.5,1.2,1.2V31h16.6c0.1,0,0.2,0,0.2,0c1.6,0.1,2.8,1.4,2.8,3  c0,1.7-1.4,3-3,3c-1.7,0-3-1.4-3-3c0-0.2,0-0.4,0.1-0.6H51.3v34.7h8.1c0.7,0,1.2,0.5,1.2,1.2c0,0.7-0.5,1.2-1.2,1.2H40.8  c-0.7,0-1.2-0.5-1.2-1.2c0-0.7,0.5-1.2,1.2-1.2h8.1V33.4H35.2c0,0.2,0.1,0.4,0.1,0.6c0,1.7-1.4,3-3,3c-1.7,0-3-1.4-3-3  C29.3,32.5,30.5,31.2,32.1,31z M32.3,59.7c-0.1,0-0.2,0-0.3,0c0,0-0.1,0-0.1,0c-4.1-0.2-7.4-2.9-7.4-6.2c0,0,0,0,0,0  c0,0,0-0.1,0-0.1c0,0,0-0.1,0-0.1c0,0,0-0.1,0-0.1c0,0,0-0.1,0-0.1c0,0,0,0,0,0l6.6-13.8c0.2-0.4,0.6-0.7,1.1-0.7  c0.5,0,0.9,0.3,1.1,0.7L39.7,53c0,0,0,0,0,0c0,0,0,0.1,0,0.1c0,0,0,0.1,0,0.1c0,0,0,0.1,0,0.1c0,0,0,0.1,0,0.1c0,0,0,0,0,0  c0,3.3-3.3,6.1-7.4,6.2C32.4,59.7,32.3,59.7,32.3,59.7z M64,74.4H36.2c-0.7,0-1.2-0.5-1.2-1.2c0-0.7,0.5-1.2,1.2-1.2H64  c0.7,0,1.2,0.5,1.2,1.2C65.2,73.9,64.7,74.4,64,74.4z M68.1,59.7c0,0-0.1,0-0.1,0c-0.1,0-0.2,0-0.3,0c0,0-0.1,0-0.1,0  c-4.1-0.2-7.4-2.9-7.4-6.2c0,0,0,0,0,0c0,0,0-0.1,0-0.1c0,0,0-0.1,0-0.1c0,0,0-0.1,0-0.1c0,0,0-0.1,0-0.1c0,0,0,0,0,0l6.5-13.8  c0.2-0.4,0.6-0.7,1.1-0.7c0.5,0,0.9,0.3,1.1,0.7L75.4,53c0,0,0,0,0,0c0,0,0,0.1,0,0.1c0,0,0,0.1,0,0.1c0,0,0,0.1,0,0.1  c0,0,0,0.1,0,0.1c0,0,0,0,0,0C75.5,56.8,72.2,59.6,68.1,59.7z"/><polygon points="27.6,52.3 36.8,52.3 32.3,42.5 "/></svg>
